# xmcd
#
# Track frame offsets:
#	150
#	21316
#	37008
#	53084
#	73618
#	86911
#	112548
#	130487
#	145661
#	163103
#	176540
#	196590
#	206276
#	222813
#	241844
#	258028
#
# Disc length: 3650 seconds
#
# Revision: 0
# Processed by: cddbd v1.5.1PL0 Copyright (c) Steve Scherf et al.
# Submitted via: dBpowerAMP V4.0
#
DISCID=d50e4010
DTITLE=Aram Asatryan - Pailog Astger
DYEAR=1900
DGENRE=Other
TTITLE0=Sulum em sulum
TTITLE1=Kapuit-Kapuit acher@t
TTITLE2=Ur e qo ser@
TTITLE3=Qez karnem
TTITLE4=Heru Heruner
TTITLE5=Et dardzek tariner
TTITLE6=Txur em txur
TTITLE7=Xar@
TTITLE8=Im qagaqi axchikner@
TTITLE9=Xar@@
TTITLE10=Hatik ninar e
TTITLE11=Hay es du
TTITLE12=7:40
TTITLE13=Arev u lusin
TTITLE14=Pshot varder
TTITLE15=Ashnan qamin
EXTD=
EXTT0=
EXTT1=
EXTT2=
EXTT3=
EXTT4=
EXTT5=
EXTT6=
EXTT7=
EXTT8=
EXTT9=
EXTT10=
EXTT11=
EXTT12=
EXTT13=
EXTT14=
EXTT15=
PLAYORDER=
